<svg width="168" height="50" viewBox="0 0 168 50" fill="none" xmlns="http://www.w3.org/2000/svg">
<g clip-path="url(#clip0_43_609)">
<path d="M163.8 0H4.2C1.8804 0 0 1.86548 0 4.16667V45.8333C0 48.1345 1.8804 50 4.2 50H163.8C166.12 50 168 48.1345 168 45.8333V4.16667C168 1.86548 166.12 0 163.8 0Z" fill="#151515"/>
<path fill-rule="evenodd" clip-rule="evenodd" d="M35.3739 14.7584C38.9355 14.7584 41.2119 18.1889 41.2119 18.1889C41.2119 18.1889 37.7399 20.0667 37.7399 24.1417C37.7399 28.9792 42.1037 30.3875 42.1037 30.3875C42.1037 30.3875 38.6597 38.5209 34.7901 38.5209C32.6145 38.5209 32.4689 37.275 29.5779 37.275C27.0663 37.275 26.2207 38.5195 24.3083 38.5195C20.6571 38.5195 15.9419 30.5889 15.9419 24.1375C15.9419 17.4389 20.7159 14.7556 23.7091 14.7556C26.3369 14.7556 27.4331 16.2973 29.5471 16.2973C31.3293 16.2973 32.7321 14.7556 35.3739 14.7556V14.7584ZM34.7607 7.92505C35.2829 11.2112 32.2911 15.2723 28.7127 15.1403C28.1877 10.9639 32.0447 8.15005 34.7579 7.92922L34.7607 7.92505Z" fill="white"/>
<mask id="mask0_43_609" style="mask-type:luminance" maskUnits="userSpaceOnUse" x="52" y="8" width="101" height="37">
<path d="M52.7295 8.12646H152.941V44.5098H52.7295V8.12785V8.12646Z" fill="white"/>
</mask>
<g mask="url(#mask0_43_609)">
<path fill-rule="evenodd" clip-rule="evenodd" d="M61.9611 32.6029L60.5471 28.2196C60.3973 27.7752 60.1159 26.7196 59.7043 25.0599H59.6539C59.4859 25.7738 59.2227 26.8279 58.8587 28.2224L57.4685 32.6071H61.9625L61.9611 32.6029ZM66.8513 39.6029H63.9953L62.4329 34.6724H56.9995L55.5085 39.6029H52.7295L58.1153 22.8154H61.4403L66.8513 39.6043V39.6029Z" fill="white"/>
</g>
<mask id="mask1_43_609" style="mask-type:luminance" maskUnits="userSpaceOnUse" x="52" y="8" width="101" height="37">
<path d="M52.7295 8.12646H152.941V44.5098H52.7295" fill="white"/>
</mask>
<g mask="url(#mask1_43_609)">
<path fill-rule="evenodd" clip-rule="evenodd" d="M77.9434 33.5001C77.9434 32.3223 77.6802 31.3501 77.151 30.5862C76.5714 29.7904 75.793 29.3917 74.8172 29.3917C74.1564 29.3917 73.5572 29.614 73.0182 30.0515C72.4791 30.4936 72.1074 31.1042 71.964 31.7834C71.88 32.1167 71.838 32.3862 71.838 32.6029V34.6223C71.838 35.5029 72.104 36.2473 72.6444 36.8542C73.182 37.4598 73.8806 37.764 74.7402 37.764C75.7482 37.764 76.535 37.3723 77.0978 36.5945C77.6606 35.8126 77.942 34.7834 77.942 33.5042M80.672 33.407C80.672 35.4654 80.1162 37.0917 79.0018 38.2876C78.0036 39.3487 76.7618 39.8806 75.2834 39.8806C73.6874 39.8806 72.5394 39.3084 71.8394 38.1626V44.5154H69.1654V31.482C69.1654 30.1862 69.1318 28.8598 69.0674 27.5001H71.4236L71.5734 29.4223H71.6238C72.5198 27.9751 73.8736 27.2515 75.6936 27.2515C77.116 27.2515 78.3032 27.8167 79.2538 28.9459C80.203 30.0779 80.679 31.564 80.679 33.407" fill="white"/>
</g>
<mask id="mask2_43_609" style="mask-type:luminance" maskUnits="userSpaceOnUse" x="52" y="8" width="101" height="37">
<path d="M52.7295 8.12646H152.941V44.5098H52.7295" fill="white"/>
</mask>
<g mask="url(#mask2_43_609)">
<path fill-rule="evenodd" clip-rule="evenodd" d="M91.8174 33.5001C91.8174 32.3223 91.5514 31.3501 91.0194 30.5862C90.4412 29.7904 89.6656 29.3917 88.6898 29.3917C88.0276 29.3917 87.4298 29.614 86.8894 30.0515C86.3503 30.4933 85.9789 31.1042 85.8366 31.7834C85.7526 32.1167 85.7106 32.3862 85.7106 32.6029V34.6223C85.7106 35.5029 85.9794 36.2473 86.5156 36.8542C87.0532 37.4584 87.7532 37.764 88.6156 37.764C89.6236 37.764 90.4118 37.3723 90.9718 36.5945C91.5318 35.8126 91.816 34.7834 91.816 33.5042M94.546 33.407C94.546 35.4654 93.986 37.0917 92.873 38.2876C91.8734 39.3487 90.633 39.8806 89.1546 39.8806C87.5544 39.8806 86.4064 39.3084 85.7106 38.1626V44.5154H83.0282V31.482C83.0282 30.1862 82.9946 28.8598 82.9302 27.5001H85.2864L85.4362 29.4223H85.4866C86.3798 27.9751 87.7364 27.2515 89.5578 27.2515C90.9788 27.2515 92.1674 27.8167 93.1194 28.9459C94.0672 30.0779 94.546 31.564 94.546 33.407Z" fill="white"/>
</g>
<path fill-rule="evenodd" clip-rule="evenodd" d="M110.059 34.8946C110.059 36.3251 109.559 37.4862 108.571 38.3834C107.482 39.3598 105.963 39.8501 104.014 39.8501C102.215 39.8501 100.772 39.5001 99.6825 38.8043L100.303 36.5612C101.479 37.2584 102.772 37.6071 104.176 37.6071C105.187 37.6071 105.973 37.3807 106.534 36.9237C107.098 36.4654 107.381 35.8571 107.381 35.0946C107.381 34.414 107.147 33.8418 106.685 33.3765C106.22 32.9126 105.453 32.4793 104.378 32.0821C101.446 30.9848 99.9821 29.3834 99.9821 27.2737C99.9821 25.8959 100.5 24.7696 101.532 23.8848C102.565 23.0071 103.936 22.5654 105.639 22.5654C107.165 22.5654 108.432 22.8321 109.44 23.3626L108.768 25.5571C107.819 25.0404 106.75 24.7834 105.554 24.7834C104.606 24.7834 103.864 25.0168 103.334 25.4821C102.888 25.8959 102.662 26.4015 102.662 27.0029C102.662 27.6654 102.919 28.2154 103.432 28.6459C103.88 29.0432 104.692 29.4765 105.863 29.9404C107.305 30.5237 108.362 31.2043 109.041 31.9821C109.723 32.7626 110.063 33.7348 110.063 34.8946M118.945 29.5196H115.991V35.3946C115.991 36.8918 116.512 37.6376 117.555 37.6376C118.035 37.6376 118.434 37.5959 118.745 37.5126L118.82 39.5543C118.294 39.7529 117.6 39.8529 116.739 39.8529C115.679 39.8529 114.853 39.5279 114.256 38.8807C113.66 38.2307 113.36 37.1446 113.36 35.6168V29.5098H111.602V27.4959H113.362V25.2793L115.994 24.4821V27.4959H118.948V29.5182L118.945 29.5196ZM129.467 33.5154C129.467 32.4071 129.229 31.4557 128.751 30.6598C128.188 29.6987 127.383 29.2182 126.343 29.2182C125.269 29.2182 124.444 29.6987 123.886 30.6598C123.404 31.4557 123.165 32.4237 123.165 33.5654C123.165 34.6765 123.403 35.6293 123.886 36.4237C124.465 37.3848 125.272 37.8654 126.322 37.8654C127.344 37.8654 128.146 37.3751 128.73 36.3987C129.22 35.5862 129.467 34.6265 129.467 33.5154ZM132.246 33.4543C132.246 35.3154 131.714 36.8432 130.656 38.0376C129.546 39.2668 128.074 39.8807 126.238 39.8807C124.465 39.8807 123.055 39.2904 122.004 38.114C120.957 36.9334 120.43 35.4473 120.43 33.6557C120.43 31.7807 120.974 30.2432 122.054 29.0487C123.139 27.8543 124.6 27.2543 126.436 27.2543C128.206 27.2543 129.628 27.8459 130.704 29.0223C131.733 30.1668 132.244 31.6432 132.244 33.4529M140.96 29.8668C140.681 29.8157 140.398 29.7906 140.114 29.7918C139.171 29.7918 138.443 30.1501 137.93 30.8668C137.482 31.4973 137.261 32.2946 137.261 33.2557V39.6098H134.582V31.314C134.582 29.9209 134.554 28.6473 134.503 27.5029H136.837L136.935 29.8196H137.009C137.293 29.0251 137.737 28.3834 138.349 27.9029C138.907 27.4831 139.587 27.2554 140.287 27.2543C140.532 27.2543 140.754 27.2709 140.953 27.3029L140.956 29.8696L140.96 29.8668ZM150.388 32.2834C150.407 31.4848 150.231 30.7973 149.87 30.214C149.403 29.4668 148.689 29.0932 147.733 29.0932C146.855 29.0932 146.143 29.4571 145.6 30.1904C145.154 30.7709 144.888 31.4682 144.807 32.2807L150.388 32.2834ZM152.944 32.9807C152.944 33.4626 152.912 33.8696 152.846 34.2029H144.807C144.835 35.3973 145.227 36.3112 145.972 36.9418C146.65 37.5029 147.526 37.7848 148.601 37.7848C149.791 37.7848 150.878 37.5973 151.855 37.2154L152.275 39.0807C151.134 39.5807 149.783 39.8307 148.232 39.8307C146.361 39.8307 144.893 39.2779 143.824 38.1751C142.76 37.0709 142.224 35.5862 142.224 33.7279C142.224 31.9043 142.72 30.3848 143.714 29.1723C144.755 27.8779 146.164 27.2307 147.932 27.2307C149.671 27.2307 150.987 27.8779 151.88 29.1723C152.587 30.1973 152.944 31.4682 152.944 32.9779V32.9807ZM58.2663 13.3668L57.5705 11.214C57.4977 10.9918 57.3633 10.4779 57.1561 9.65844H57.1309C57.0469 10.0112 56.9237 10.5265 56.7389 11.214L56.0571 13.3668H58.2663ZM60.6673 16.8043H59.2673L58.4973 14.3807H55.8261L55.0953 16.8057H53.7261L56.3721 8.55566H58.0073L60.6673 16.8043ZM67.2893 10.8571L65.0423 16.8043H63.7613L61.5913 10.8571H63.0053L64.0189 14.0029C64.1897 14.5307 64.3353 15.0307 64.4445 15.5071H64.4823C64.5803 15.0793 64.7259 14.5765 64.9079 14.0029L65.9061 10.8557H67.2851L67.2893 10.8571ZM71.8813 13.8432C70.4197 13.8432 69.6875 14.1987 69.6875 15.0418C69.6875 15.6668 70.0655 15.9723 70.5905 15.9723C71.2625 15.9723 71.8827 15.4584 71.8827 14.7612V13.8446L71.8813 13.8432ZM72.0675 16.8057L71.9695 16.1209H71.9317C71.5299 16.6723 70.9447 16.9404 70.1999 16.9404C69.1359 16.9404 68.3799 16.1946 68.3799 15.1904C68.3799 13.7209 69.6483 12.9626 71.8435 12.9626V12.8515C71.8435 12.0682 71.4291 11.6765 70.6115 11.6765C70.0624 11.6667 69.523 11.8206 69.0631 12.1182L68.7943 11.2487C69.3445 10.9057 70.0263 10.7348 70.8327 10.7348C72.3811 10.7348 73.1623 11.5543 73.1623 13.1959V15.3848C73.1623 15.9876 73.1875 16.4543 73.2463 16.8071H72.0633L72.0675 16.8057Z" fill="white"/>
<mask id="mask3_43_609" style="mask-type:luminance" maskUnits="userSpaceOnUse" x="52" y="8" width="101" height="37">
<path d="M52.7295 8.12646H152.941V44.5098H52.7295V8.12785V8.12646Z" fill="white"/>
</mask>
<g mask="url(#mask3_43_609)">
<path fill-rule="evenodd" clip-rule="evenodd" d="M76.7841 16.8071H75.4681V10.8571H76.7841V16.8071ZM76.1009 9.87656C75.9964 9.87679 75.893 9.8562 75.7967 9.81602C75.7005 9.77585 75.6133 9.7169 75.5405 9.64267C75.4676 9.56845 75.4105 9.48046 75.3726 9.38392C75.3347 9.28739 75.3167 9.18429 75.3197 9.08072C75.3197 8.63072 75.6739 8.29878 76.1261 8.29878C76.5769 8.29878 76.9423 8.63211 76.9297 9.0835C76.9297 9.56128 76.5895 9.87934 76.1009 9.87934V9.87656ZM80.4409 16.8071H79.1249V8.12656H80.4409V16.8071ZM85.8589 13.8432C84.3931 13.8432 83.6609 14.1988 83.6609 15.0418C83.6609 15.6668 84.0389 15.9724 84.5639 15.9724C85.2317 15.9724 85.8547 15.4585 85.8547 14.7613V13.8446L85.8589 13.8432ZM86.0409 16.8057L85.9429 16.121H85.9065C85.5033 16.6724 84.9181 16.9404 84.1733 16.9404C83.1135 16.9404 82.3561 16.1946 82.3561 15.1904C82.3561 13.721 83.6245 12.9627 85.8211 12.9627V12.8516C85.8211 12.0682 85.4053 11.6766 84.5891 11.6766C84.0011 11.6766 83.4901 11.8238 83.0407 12.1182L82.7747 11.2474C83.3235 10.9071 84.0067 10.7335 84.8117 10.7335C86.3601 10.7335 87.1427 11.5529 87.1427 13.1974V15.3849C87.1427 15.9863 87.1665 16.4516 87.2267 16.8057H86.0409ZM92.2093 11.7738C91.4505 11.7738 90.7561 12.4349 90.7561 13.3529V14.3946C90.7561 15.2141 91.3791 15.8877 92.1841 15.8877C93.1725 15.8877 93.7591 15.0793 93.7591 13.7946C93.7591 12.5946 93.1473 11.7738 92.2079 11.7738M92.4739 16.9404C91.6339 16.9404 91.0109 16.5849 90.6077 15.8877H90.5825L90.5055 16.8043H89.3855C89.4191 16.3293 89.4317 15.7904 89.4317 15.2029V8.12378H90.7505V11.7238H90.7743C91.1635 11.0627 91.7963 10.7321 92.6643 10.7321C94.0923 10.7321 95.0919 11.9585 95.0919 13.746C95.0919 15.5932 93.9817 16.9404 92.4697 16.9404M98.3637 16.8071H97.0477V8.12656H98.3637V16.8071ZM104.325 13.2071C104.325 12.2904 103.863 11.6404 103.02 11.6404C102.261 11.6404 101.668 12.3016 101.578 13.2071H104.325ZM105.533 14.1488H101.578C101.606 15.2766 102.348 15.9127 103.444 15.9127C104.032 15.9127 104.567 15.8127 105.04 15.6307L105.246 16.5474C104.686 16.7932 104.028 16.9154 103.258 16.9154C101.406 16.9154 100.308 15.7404 100.308 13.9154C100.308 12.0932 101.431 10.721 103.112 10.721C104.62 10.721 105.576 11.8488 105.576 13.5502C105.579 13.7793 105.567 13.9877 105.53 14.1474L105.533 14.1488ZM113.569 11.7002C112.617 11.7002 112.005 12.5932 112.005 13.8418C112.005 15.0641 112.631 15.9585 113.559 15.9585C114.483 15.9585 115.106 15.0029 115.106 13.8141C115.106 12.6057 114.496 11.6988 113.57 11.6988M113.517 16.9404C111.785 16.9404 110.661 15.6432 110.661 13.8807C110.661 12.0446 111.809 10.7335 113.618 10.7335C115.322 10.7335 116.471 11.9696 116.471 13.7863C116.471 15.6474 115.288 16.9432 113.517 16.9432M123.555 16.8085H122.239V13.3918C122.239 12.3404 121.836 11.8127 121.042 11.8127C120.262 11.8127 119.723 12.4863 119.723 13.271V16.8085H118.407V12.5585C118.407 12.0335 118.393 11.4696 118.358 10.8585H119.518L119.579 11.7752H119.616C119.966 11.1363 120.689 10.7335 121.492 10.7335C122.738 10.7335 123.554 11.6877 123.554 13.2418V16.8057L123.555 16.8085ZM132.172 11.8502H130.723V14.7391C130.723 15.4752 130.978 15.8418 131.489 15.8418C131.721 15.8418 131.917 15.8168 132.077 15.7807L132.112 16.7849C131.856 16.8821 131.513 16.9321 131.09 16.9321C130.05 16.9321 129.431 16.3571 129.431 14.8488V11.8488H128.567V10.8571H129.431V9.76684L130.723 9.37378V10.8571H132.172V11.8474V11.8502ZM139.148 16.8085H137.83V13.4196C137.83 12.3529 137.426 11.8141 136.634 11.8141C135.951 11.8141 135.318 12.2793 135.318 13.2224V16.8113H133.999V8.12656H135.318V11.7002H135.346C135.758 11.0516 136.354 10.7335 137.124 10.7335C138.381 10.7335 139.148 11.7154 139.148 13.2696V16.8085ZM144.671 13.2113C144.671 12.2946 144.209 11.6418 143.367 11.6418C142.611 11.6418 142.016 12.3043 141.929 13.2113H144.673H144.671ZM145.88 14.1516H141.926C141.951 15.2793 142.693 15.9154 143.791 15.9154C144.379 15.9154 144.914 15.8154 145.387 15.6335L145.594 16.5502C145.034 16.796 144.376 16.9182 143.606 16.9182C141.751 16.9182 140.655 15.7432 140.655 13.9182C140.655 12.096 141.775 10.7238 143.459 10.7238C144.971 10.7238 145.923 11.8516 145.923 13.5529C145.929 13.7821 145.916 13.9904 145.881 14.1502L145.88 14.1516Z" fill="white"/>
</g>
</g>
<defs>
<clipPath id="clip0_43_609">
<rect width="168" height="50" fill="white"/>
</clipPath>
</defs>
</svg>
